<svg width="168" height="43" viewBox="0 0 168 43" fill="none" xmlns="http://www.w3.org/2000/svg">
<g clip-path="url(#clip0)">
<path d="M65.1101 23.39C63.775 23.4098 62.4525 23.1296 61.2401 22.57C58.993 21.5445 57.2349 19.6823 56.3401 17.38C55.4071 15.1088 55.4071 12.5613 56.3401 10.29C57.2839 8.00934 59.0766 6.18437 61.3401 5.20003C62.5506 4.67173 63.8594 4.40589 65.1801 4.42003C66.514 4.40182 67.8355 4.67841 69.0501 5.23003C70.1817 5.7514 71.2007 6.4885 72.0501 7.40003C72.8651 8.27462 73.5125 9.2915 73.9601 10.4C74.4221 11.5437 74.6565 12.7666 74.6501 14C74.6514 15.2155 74.41 16.4191 73.9401 17.54C73.4687 18.6573 72.7901 19.6752 71.9401 20.54C71.0809 21.4223 70.0632 22.1347 68.9401 22.64C67.7318 23.1614 66.4257 23.4171 65.1101 23.39ZM60.8701 13.9C60.8689 14.5193 60.9564 15.1356 61.1301 15.73C61.2952 16.2973 61.563 16.8294 61.9201 17.3C62.277 17.7627 62.731 18.1416 63.2501 18.41C63.8515 18.6899 64.5068 18.835 65.1701 18.835C65.8334 18.835 66.4887 18.6899 67.0901 18.41C67.6145 18.1364 68.0695 17.7465 68.4201 17.27C68.7716 16.7928 69.0295 16.2533 69.1801 15.68C69.3477 15.088 69.4319 14.4754 69.4301 13.86C69.4379 13.2305 69.3502 12.6033 69.1701 12C69.0078 11.4358 68.736 10.9092 68.3701 10.45C67.9827 9.9725 67.4886 9.59253 66.9276 9.34069C66.3666 9.08886 65.7544 8.97218 65.1401 9.00003C64.4785 8.97984 63.8222 9.12416 63.2301 9.42003C62.7064 9.68586 62.2512 10.0692 61.9001 10.54C61.5442 11.0137 61.2797 11.5495 61.1201 12.12C60.9542 12.6988 60.8701 13.2979 60.8701 13.9Z" fill="#1D1D1B"/>
<path d="M76.47 13.72C76.4702 12.5664 76.6873 11.4232 77.11 10.35C77.537 9.23559 78.1792 8.2162 79 7.34995C79.8943 6.3943 80.9798 5.6377 82.1858 5.12943C83.3919 4.62116 84.6915 4.3726 86 4.39995C87.6407 4.35704 89.2642 4.7431 90.71 5.51995C91.986 6.19943 93.0305 7.24392 93.71 8.51995L89.78 11.31C89.6295 10.8902 89.3947 10.5056 89.09 10.18C88.8009 9.88643 88.4624 9.6461 88.09 9.46995C87.7462 9.29085 87.3794 9.15963 87 9.07995C86.6464 9.02138 86.2883 8.99461 85.93 8.99995C85.3053 8.97744 84.6846 9.10777 84.1217 9.37963C83.5588 9.65149 83.0708 10.0567 82.7 10.56C82.3541 11.0369 82.0967 11.572 81.94 12.14C81.7744 12.712 81.6903 13.3045 81.69 13.9C81.6932 14.5293 81.7978 15.154 82 15.75C82.1783 16.3247 82.4632 16.8607 82.84 17.33C83.2077 17.7888 83.6721 18.161 84.2 18.42C84.757 18.7029 85.3754 18.8437 86 18.83C86.3633 18.8285 86.7253 18.7883 87.08 18.71C87.4528 18.6295 87.8129 18.4983 88.15 18.32C88.4921 18.1331 88.8025 17.8935 89.07 17.61C89.3538 17.2986 89.5745 16.9353 89.72 16.54L93.89 19C93.5954 19.6982 93.1596 20.3281 92.61 20.85C92.0146 21.4028 91.3406 21.8645 90.61 22.22C89.8645 22.5961 89.0751 22.8783 88.26 23.06C87.4602 23.2483 86.6417 23.3456 85.82 23.35C84.507 23.3633 83.2079 23.0795 82.02 22.52C80.8864 21.9888 79.8673 21.2415 79.02 20.32C78.1894 19.41 77.532 18.3561 77.08 17.21C76.6644 16.0939 76.4576 14.9109 76.47 13.72Z" fill="#1D1D1B"/>
<path d="M110.93 9.00002H105.56V23.23H100.42V9.00002H95V4.52002H110.91L110.93 9.00002Z" fill="#1D1D1B"/>
<path d="M113.57 23.23V4.52003H121.63C122.506 4.51166 123.372 4.70678 124.16 5.09003C124.915 5.45106 125.594 5.95345 126.16 6.57003C126.717 7.17829 127.157 7.88323 127.46 8.65003C127.774 9.39738 127.937 10.1994 127.94 11.01C127.939 11.8341 127.786 12.651 127.49 13.42C127.198 14.1809 126.775 14.8848 126.24 15.5C125.679 16.1139 124.998 16.6072 124.24 16.95C123.451 17.3164 122.59 17.501 121.72 17.49H118.67V23.23H113.57ZM118.71 13H121.42C121.59 12.9937 121.756 12.9511 121.908 12.8752C122.059 12.7993 122.193 12.6919 122.3 12.56C122.625 12.1086 122.771 11.5528 122.71 11C122.743 10.717 122.718 10.4304 122.637 10.1572C122.556 9.884 122.421 9.62989 122.24 9.41003C121.986 9.15831 121.648 9.00885 121.29 8.99003H118.71V13Z" fill="#1D1D1B"/>
<path d="M139.07 23.39C137.735 23.4098 136.412 23.1296 135.2 22.57C134.072 22.0558 133.053 21.3293 132.2 20.43C131.38 19.538 130.73 18.5046 130.28 17.38C129.827 16.2584 129.596 15.0596 129.6 13.85C129.596 12.6278 129.837 11.4171 130.31 10.29C130.773 9.16841 131.453 8.14901 132.31 7.29004C133.166 6.40948 134.185 5.70314 135.31 5.21004C136.517 4.68079 137.822 4.41488 139.14 4.43004C140.474 4.41183 141.795 4.68842 143.01 5.24004C145.251 6.28518 147.003 8.1551 147.9 10.46C148.344 11.577 148.571 12.7682 148.57 13.97C148.575 15.1859 148.333 16.3901 147.86 17.51C147.389 18.6276 146.71 19.6456 145.86 20.51C145 21.3914 143.982 22.1037 142.86 22.61C141.666 23.1361 140.374 23.402 139.07 23.39ZM134.83 13.9C134.827 14.5202 134.918 15.1372 135.1 15.73C135.261 16.2989 135.529 16.8318 135.89 17.3C136.244 17.7651 136.699 18.1444 137.22 18.41C137.812 18.7059 138.468 18.8502 139.13 18.83C139.796 18.8488 140.456 18.701 141.05 18.4C141.576 18.1291 142.032 17.7387 142.38 17.26C142.731 16.7811 142.992 16.2423 143.15 15.67C143.313 15.077 143.397 14.4651 143.4 13.85C143.401 13.23 143.31 12.6132 143.13 12.02C142.972 11.4543 142.699 10.9268 142.33 10.47C141.947 9.9864 141.454 9.60086 140.892 9.34525C140.331 9.08965 139.716 8.97132 139.1 9.00004C138.439 8.98313 137.783 9.12727 137.19 9.42004C136.666 9.68587 136.211 10.0692 135.86 10.54C135.504 11.0137 135.24 11.5495 135.08 12.12C134.919 12.6998 134.835 13.2983 134.83 13.9Z" fill="#1D1D1B"/>
<path d="M167.48 18.4401C167.499 19.1976 167.316 19.9464 166.95 20.6101C166.599 21.2199 166.1 21.7321 165.5 22.1001C164.84 22.5022 164.116 22.7896 163.36 22.9501C162.507 23.1419 161.635 23.2358 160.76 23.2301H151.56V4.52011H162.42C163.036 4.51188 163.644 4.65618 164.19 4.94011C164.699 5.20706 165.153 5.56654 165.53 6.00011C166.186 6.80529 166.584 7.78963 166.671 8.82442C166.758 9.85921 166.532 10.8963 166.02 11.8001C165.567 12.6013 164.864 13.2332 164.02 13.6001C165.017 13.8743 165.904 14.4507 166.56 15.2501C167.231 16.1729 167.556 17.3018 167.48 18.4401ZM156.7 8.90011V11.7701H160.21C160.565 11.7791 160.915 11.6778 161.21 11.4801C161.372 11.3377 161.497 11.1571 161.572 10.9545C161.647 10.752 161.67 10.534 161.64 10.3201C161.66 10.1225 161.638 9.92281 161.574 9.73469C161.51 9.54657 161.407 9.37445 161.27 9.23011C161.037 9.01287 160.729 8.89456 160.41 8.90011H156.7ZM162.26 17.3801C162.276 16.9683 162.145 16.5643 161.89 16.2401C161.781 16.0913 161.638 15.9709 161.472 15.8891C161.307 15.8073 161.125 15.7665 160.94 15.7701H156.7V18.9101H160.76C161.155 18.922 161.54 18.7784 161.83 18.5101C161.979 18.3642 162.095 18.1875 162.169 17.9924C162.244 17.7973 162.275 17.5884 162.26 17.3801Z" fill="#1D1D1B"/>
<path d="M60.2599 33.24H57.2599V38.88H56.1499V32.42H60.2599V33.24Z" fill="#868686"/>
<path d="M60 38.0001C60.2353 37.9836 60.4641 37.9153 60.67 37.8001C60.8706 37.6673 61.0245 37.4749 61.11 37.2501C61.255 36.8868 61.3557 36.5074 61.41 36.1201C61.5 35.6401 61.58 35.0101 61.66 34.2301L61.86 32.4301H65.86V38.8901H64.8V33.2701H62.8L62.62 34.6701C62.5 35.5101 62.38 36.2001 62.25 36.7401C62.1622 37.177 62.0177 37.6006 61.82 38.0001C61.6634 38.2848 61.427 38.5176 61.14 38.6701C60.8268 38.8182 60.4863 38.8999 60.14 38.9101L60 38.0001Z" fill="#868686"/>
<path d="M70.46 39C70.0025 39.0052 69.5492 38.9132 69.13 38.73C68.7518 38.555 68.4119 38.3069 68.13 38C67.8395 37.6901 67.6119 37.3267 67.46 36.93C67.307 36.5241 67.2291 36.0938 67.23 35.66C67.2284 35.2188 67.3099 34.7812 67.47 34.37C67.6222 33.9764 67.8498 33.6164 68.14 33.31C68.4212 33.0023 68.7612 32.7541 69.14 32.58C69.5557 32.3968 70.0058 32.3047 70.46 32.31C70.9174 32.3057 71.3705 32.3977 71.79 32.58C72.1682 32.755 72.5081 33.0031 72.79 33.31C73.0769 33.6189 73.3041 33.9783 73.46 34.37C73.6201 34.7812 73.7016 35.2188 73.7 35.66C73.7024 36.0949 73.6209 36.5261 73.46 36.93C73.3205 37.3238 73.1066 37.687 72.83 38C72.5448 38.3032 72.2057 38.5507 71.83 38.73C71.3989 38.9201 70.931 39.0123 70.46 39ZM68.32 35.67C68.3186 35.9911 68.3762 36.3098 68.49 36.61C68.5934 36.8904 68.7495 37.1484 68.95 37.37C69.1405 37.581 69.3718 37.7511 69.63 37.87C69.8906 37.9951 70.1759 38.06 70.465 38.06C70.754 38.06 71.0394 37.9951 71.3 37.87C71.5606 37.7507 71.7925 37.5768 71.98 37.36C72.1858 37.1367 72.3455 36.8751 72.45 36.59C72.5638 36.2898 72.6214 35.9711 72.62 35.65C72.6197 35.3291 72.5621 35.0108 72.45 34.71C72.3435 34.4484 72.1911 34.208 72 34C71.8103 33.7831 71.5791 33.6063 71.32 33.48C71.0563 33.3599 70.7697 33.2985 70.48 33.3C70.1923 33.2976 69.908 33.3627 69.65 33.49C69.4025 33.6166 69.1818 33.7898 69 34C68.7974 34.2239 68.6411 34.4856 68.54 34.77C68.4138 35.0546 68.3393 35.3593 68.32 35.67Z" fill="#868686"/>
<path d="M76.1401 35.1H79.4101V32.42H80.4701V38.88H79.4101V36H76.1401V38.87H75.0801V32.42H76.1401V35.1Z" fill="#868686"/>
<path d="M83.91 39C83.6199 39.0032 83.3316 38.9523 83.06 38.85C82.8051 38.7512 82.571 38.6054 82.37 38.42C82.1745 38.2404 82.018 38.0226 81.91 37.78C81.7963 37.5288 81.7383 37.2558 81.74 36.98C81.7396 36.6978 81.8083 36.4197 81.94 36.17C82.0764 35.9229 82.2681 35.7107 82.5 35.55C82.7676 35.37 83.0609 35.2318 83.37 35.14C83.7274 35.0364 84.098 34.9859 84.47 34.99C84.8055 34.9875 85.1404 35.0177 85.47 35.08C85.7601 35.129 86.0448 35.206 86.32 35.31V34.79C86.3422 34.5609 86.313 34.3296 86.2346 34.1132C86.1562 33.8967 86.0305 33.7004 85.8668 33.5385C85.703 33.3767 85.5053 33.2534 85.2879 33.1775C85.0705 33.1017 84.8389 33.0752 84.61 33.1C83.8832 33.1438 83.1864 33.4051 82.61 33.85L82.25 33.15C82.9833 32.6242 83.858 32.3315 84.76 32.31C85.1218 32.2859 85.4847 32.3336 85.8279 32.4503C86.1712 32.567 86.4879 32.7504 86.76 32.99C87.0051 33.2433 87.1948 33.5448 87.317 33.8753C87.4393 34.2059 87.4914 34.5582 87.47 34.91V37.54C87.47 37.8 87.59 37.93 87.82 37.94V38.88H87.53H87.3C87.2043 38.8841 87.1087 38.8684 87.0193 38.834C86.9298 38.7996 86.8484 38.7472 86.78 38.68C86.6572 38.5545 86.5767 38.3936 86.55 38.22V37.76C86.2665 38.1428 85.8918 38.4488 85.46 38.65C84.9776 38.8857 84.4469 39.0056 83.91 39ZM84.19 38.18C84.5617 38.1925 84.9321 38.1313 85.28 38C85.5787 37.8746 85.8403 37.675 86.04 37.42C86.1769 37.2966 86.2596 37.1241 86.27 36.94V36C85.7483 35.7925 85.1915 35.6873 84.63 35.69C84.1656 35.6576 83.7022 35.7656 83.3 36C83.1377 36.0887 83.0031 36.2208 82.9113 36.3814C82.8195 36.5421 82.774 36.7251 82.78 36.91C82.7797 37.0827 82.8172 37.2534 82.89 37.41C82.9573 37.5679 83.0599 37.7081 83.19 37.82C83.3168 37.9441 83.4709 38.0366 83.64 38.09C83.8158 38.1553 84.0026 38.1859 84.19 38.18Z" fill="#868686"/>
<path d="M88.68 35.6399C88.6765 35.1985 88.758 34.7606 88.92 34.3499C89.0698 33.9552 89.2977 33.5946 89.59 33.29C89.875 32.9891 90.2143 32.7448 90.59 32.5699C91.0363 32.3843 91.5169 32.2957 92 32.31C92.5847 32.2942 93.1624 32.4395 93.67 32.7299C94.1203 33.008 94.484 33.4063 94.72 33.88L93.66 34.2099C93.4976 33.9159 93.2593 33.6707 92.97 33.5C92.6908 33.3487 92.3805 33.2637 92.0632 33.2516C91.7459 33.2394 91.43 33.3005 91.14 33.43C90.8784 33.5429 90.6459 33.7139 90.46 33.93C90.2646 34.1515 90.1089 34.4053 90 34.68C89.8839 35.0001 89.8296 35.3395 89.84 35.68C89.8289 36.0213 89.8867 36.3614 90.01 36.68C90.1212 36.9596 90.2765 37.2196 90.47 37.45C90.6596 37.6645 90.891 37.8381 91.15 37.9599C91.4112 38.0885 91.699 38.1536 91.99 38.15C92.1795 38.1487 92.3678 38.1218 92.55 38.07C92.7294 38.0207 92.9011 37.9466 93.06 37.8499C93.2075 37.7662 93.3422 37.6618 93.46 37.54C93.5728 37.4313 93.6584 37.2977 93.71 37.15L94.77 37.47C94.6721 37.7118 94.5335 37.935 94.36 38.13C94.1749 38.3258 93.9628 38.4941 93.73 38.63C93.4806 38.7731 93.2155 38.8872 92.94 38.97C92.6294 39.0217 92.3133 39.0318 92 39C91.5574 39.0057 91.1183 38.9198 90.7105 38.7477C90.3026 38.5756 89.9348 38.321 89.63 38C89.3395 37.69 89.112 37.3266 88.96 36.93C88.7816 36.5229 88.6864 36.0843 88.68 35.6399Z" fill="#868686"/>
<path d="M95.4799 35.64C95.4732 35.1992 95.5513 34.7613 95.7099 34.35C95.8597 33.9552 96.0875 33.5947 96.3799 33.29C96.6649 32.9892 97.0042 32.7449 97.3799 32.57C97.8045 32.3939 98.2603 32.3055 98.7199 32.31C99.3045 32.2943 99.8822 32.4395 100.39 32.73C100.843 33.0074 101.21 33.4056 101.45 33.88L100.38 34.21C100.223 33.9118 99.9834 33.6653 99.6899 33.5C99.4107 33.3487 99.1004 33.2637 98.7831 33.2516C98.4657 33.2395 98.1499 33.3005 97.8599 33.43C97.5983 33.543 97.3657 33.7139 97.1799 33.93C96.9841 34.1495 96.8314 34.4039 96.7299 34.68C96.6052 34.9981 96.5473 35.3385 96.5599 35.68C96.5541 36.021 96.6117 36.3601 96.7299 36.68C96.8407 36.962 96.9997 37.2226 97.1999 37.45C97.3874 37.6668 97.6193 37.8407 97.8799 37.96C98.1375 38.0884 98.422 38.1536 98.7099 38.15C98.9128 38.1289 99.1116 38.0784 99.2999 38C99.4793 37.9507 99.6509 37.8767 99.8099 37.78C99.9573 37.6962 100.092 37.5918 100.21 37.47C100.323 37.3614 100.408 37.2278 100.46 37.08L101.52 37.4C101.426 37.6438 101.287 37.8677 101.11 38.06C100.926 38.2535 100.718 38.4216 100.49 38.56C100.237 38.7032 99.9685 38.8172 99.6899 38.9C99.3899 38.9804 99.0805 39.0208 98.7699 39.02C98.3091 39.0263 97.8523 38.9343 97.4299 38.75C97.0542 38.5707 96.7151 38.3232 96.4299 38.02C96.1394 37.7101 95.9118 37.3467 95.7599 36.95C95.5836 36.5353 95.4885 36.0906 95.4799 35.64Z" fill="#868686"/>
<path d="M105.25 35.76C105.252 35.9179 105.221 36.0746 105.16 36.22C105.097 36.3527 105.012 36.4743 104.91 36.58C104.806 36.6889 104.68 36.7742 104.54 36.83C104.397 36.8887 104.244 36.9192 104.09 36.92C103.935 36.9211 103.782 36.8905 103.64 36.83C103.501 36.7716 103.376 36.6867 103.27 36.58C103.161 36.48 103.076 36.357 103.02 36.22C102.95 36.0768 102.916 35.9191 102.92 35.76C102.919 35.6076 102.954 35.4571 103.02 35.32C103.076 35.1802 103.161 35.054 103.27 34.95C103.375 34.8403 103.501 34.752 103.64 34.69C103.782 34.6295 103.935 34.5989 104.09 34.6C104.244 34.6008 104.397 34.6313 104.54 34.69C104.68 34.7496 104.806 34.8382 104.91 34.95C105.012 35.0593 105.097 35.1842 105.16 35.32C105.219 35.4591 105.25 35.6088 105.25 35.76Z" fill="#868686"/>
<path d="M109.78 38.88H108.71V33.36H106.55V32.42H111.94V33.36H109.78V38.88Z" fill="#868686"/>
<path d="M114.74 39C114.447 39.0024 114.155 38.9515 113.88 38.85C113.629 38.7487 113.399 38.603 113.2 38.42C113.005 38.2404 112.848 38.0226 112.74 37.78C112.626 37.5288 112.568 37.2558 112.57 36.98C112.57 36.6978 112.638 36.4197 112.77 36.17C112.906 35.9229 113.098 35.7107 113.33 35.55C113.596 35.3675 113.89 35.229 114.2 35.14C114.554 35.0371 114.921 34.9866 115.29 34.99C115.626 34.9882 115.96 35.0183 116.29 35.08C116.58 35.129 116.865 35.206 117.14 35.31V34.79C117.16 34.5613 117.13 34.3308 117.051 34.1152C116.972 33.8996 116.846 33.7041 116.683 33.5426C116.519 33.3812 116.322 33.2578 116.106 33.1813C115.889 33.1048 115.659 33.077 115.43 33.1C114.703 33.1438 114.006 33.4051 113.43 33.85L113.07 33.15C113.803 32.6225 114.678 32.3296 115.58 32.31C115.942 32.2859 116.305 32.3336 116.648 32.4503C116.991 32.567 117.308 32.7504 117.58 32.99C117.825 33.2433 118.015 33.5448 118.137 33.8753C118.259 34.2059 118.311 34.5582 118.29 34.91V37.54C118.29 37.8 118.4 37.93 118.63 37.94V38.88H118.35H118.12C118.024 38.8841 117.929 38.8684 117.839 38.834C117.75 38.7996 117.668 38.7472 117.6 38.68C117.474 38.5571 117.393 38.395 117.37 38.22V37.76C117.083 38.1433 116.705 38.4491 116.27 38.65C115.795 38.8855 115.271 39.0054 114.74 39ZM115.02 38.18C115.389 38.1933 115.756 38.1321 116.1 38C116.402 37.8801 116.665 37.6794 116.86 37.42C116.931 37.3609 116.989 37.2877 117.03 37.2051C117.072 37.1225 117.095 37.0323 117.1 36.94V36C116.575 35.7927 116.015 35.6875 115.45 35.69C114.983 35.6697 114.52 35.788 114.12 36.03C113.964 36.1249 113.835 36.2585 113.745 36.4179C113.656 36.5774 113.609 36.7572 113.61 36.94C113.61 37.1127 113.647 37.2834 113.72 37.44C113.787 37.5953 113.886 37.7349 114.01 37.85C114.14 37.9699 114.293 38.0618 114.46 38.12C114.635 38.1727 114.818 38.1931 115 38.18H115.02Z" fill="#868686"/>
<path d="M120.37 32.42L122.13 34.79L122.23 34.99L122.34 34.79L124.1 32.42H125.25L122.84 35.66L125.26 38.88H124.11L122.34 36.51L122.23 36.33L122.13 36.51L120.37 38.88H119.21L121.64 35.66L119.23 32.42H120.37Z" fill="#868686"/>
<path d="M128.81 39C128.352 39.0052 127.899 38.9131 127.48 38.73C127.102 38.5549 126.762 38.3068 126.48 38C126.189 37.6921 125.964 37.328 125.82 36.93C125.659 36.526 125.577 36.0948 125.58 35.66C125.578 35.2187 125.66 34.7811 125.82 34.37C125.976 33.9782 126.203 33.6188 126.49 33.31C126.77 33.001 127.11 32.7526 127.49 32.58C127.902 32.3978 128.349 32.3058 128.8 32.31C129.257 32.3057 129.71 32.3977 130.13 32.58C130.509 32.7526 130.85 33.001 131.13 33.31C131.42 33.6163 131.648 33.9764 131.8 34.37C131.96 34.7811 132.041 35.2187 132.04 35.66C132.041 36.0937 131.963 36.5241 131.81 36.93C131.658 37.3266 131.43 37.69 131.14 38C130.855 38.3031 130.516 38.5507 130.14 38.73C129.721 38.9143 129.267 39.0064 128.81 39ZM126.67 35.67C126.668 35.9911 126.726 36.3097 126.84 36.61C126.947 36.8884 127.103 37.1457 127.3 37.37C127.49 37.5809 127.722 37.751 127.98 37.87C128.24 37.995 128.526 38.0599 128.815 38.0599C129.104 38.0599 129.389 37.995 129.65 37.87C129.912 37.7483 130.147 37.5748 130.34 37.36C130.539 37.1336 130.695 36.8726 130.8 36.59C130.914 36.2897 130.971 35.9711 130.97 35.65C130.97 35.329 130.912 35.0107 130.8 34.71C130.693 34.4315 130.537 34.1742 130.34 33.95C130.144 33.7349 129.91 33.5586 129.65 33.43C129.386 33.3098 129.1 33.2484 128.81 33.25C128.522 33.2475 128.238 33.3126 127.98 33.44C127.721 33.5662 127.49 33.743 127.3 33.96C127.101 34.1863 126.945 34.4473 126.84 34.73C126.726 35.0302 126.668 35.3489 126.67 35.67Z" fill="#868686"/>
<path d="M137.54 33.24H134.54V38.88H133.48V32.42H137.59L137.54 33.24Z" fill="#868686"/>
<path d="M142.15 39C141.647 39.0119 141.152 38.8725 140.73 38.6C140.322 38.3511 139.979 38.0082 139.73 37.6V41.51H138.64V32.42H139.64V33.63C139.893 33.2247 140.235 32.8826 140.64 32.63C141.052 32.3887 141.522 32.2642 142 32.27C142.422 32.2655 142.839 32.3579 143.22 32.54C143.601 32.7141 143.942 32.9661 144.22 33.28C144.496 33.5949 144.713 33.9575 144.86 34.35C145.009 34.7532 145.083 35.1801 145.08 35.61C145.082 36.0519 145.011 36.4912 144.87 36.91C144.744 37.3015 144.544 37.6649 144.28 37.98C144.03 38.2786 143.72 38.5206 143.37 38.69C142.995 38.892 142.576 38.9985 142.15 39ZM141.82 38.06C142.122 38.0626 142.42 37.9941 142.69 37.86C142.947 37.7224 143.175 37.5355 143.36 37.31C143.542 37.0788 143.684 36.8185 143.78 36.54C143.879 36.2537 143.93 35.9529 143.93 35.65C143.93 35.3355 143.872 35.0238 143.76 34.73C143.651 34.4468 143.492 34.1859 143.29 33.96C143.093 33.7424 142.855 33.5658 142.59 33.44C142.318 33.3121 142.02 33.2471 141.72 33.25C141.508 33.2529 141.298 33.2935 141.1 33.37C140.892 33.4457 140.694 33.5464 140.51 33.67C140.326 33.7968 140.164 33.9521 140.03 34.13C139.896 34.2962 139.804 34.4914 139.76 34.7V36.54C139.853 36.7528 139.97 36.9542 140.11 37.14C140.249 37.3193 140.411 37.4806 140.59 37.62C140.767 37.7534 140.962 37.8611 141.17 37.94C141.377 38.0202 141.598 38.0609 141.82 38.06Z" fill="#868686"/>
<path d="M148 39C147.707 39.0024 147.415 38.9515 147.14 38.85C146.889 38.7487 146.659 38.603 146.46 38.42C146.265 38.2404 146.108 38.0226 146 37.78C145.886 37.5288 145.828 37.2558 145.83 36.98C145.83 36.6978 145.898 36.4197 146.03 36.17C146.166 35.9229 146.358 35.7107 146.59 35.55C146.858 35.37 147.151 35.2318 147.46 35.14C147.817 35.0364 148.188 34.9859 148.56 34.99C148.896 34.9875 149.23 35.0177 149.56 35.08C149.85 35.129 150.135 35.206 150.41 35.31V34.79C150.432 34.5609 150.403 34.3296 150.325 34.1132C150.246 33.8967 150.121 33.7004 149.957 33.5385C149.793 33.3767 149.595 33.2534 149.378 33.1775C149.161 33.1017 148.929 33.0752 148.7 33.1C147.956 33.1338 147.24 33.3956 146.65 33.85L146.29 33.15C147.023 32.6225 147.898 32.3296 148.8 32.31C149.162 32.2859 149.525 32.3336 149.868 32.4503C150.211 32.567 150.528 32.7504 150.8 32.99C151.045 33.2433 151.235 33.5448 151.357 33.8753C151.479 34.2059 151.531 34.5582 151.51 34.91V37.54C151.51 37.8 151.63 37.93 151.86 37.94V38.88H151.57H151.34C151.244 38.8841 151.149 38.8684 151.059 38.834C150.97 38.7996 150.888 38.7472 150.82 38.68C150.697 38.5545 150.617 38.3936 150.59 38.22V37.76C150.305 38.1454 149.926 38.4517 149.49 38.65C149.027 38.8794 148.517 38.9992 148 39ZM148.28 38.18C148.654 38.1829 149.024 38.1116 149.37 37.97C149.669 37.8446 149.93 37.645 150.13 37.39C150.267 37.2666 150.35 37.0941 150.36 36.91V36C149.838 35.7925 149.282 35.6873 148.72 35.69C148.253 35.6666 147.789 35.7851 147.39 36.03C147.228 36.1187 147.093 36.2508 147.001 36.4114C146.91 36.5721 146.864 36.7551 146.87 36.94C146.87 37.1127 146.907 37.2834 146.98 37.44C147.047 37.5953 147.146 37.7349 147.27 37.85C147.402 37.9723 147.559 38.0645 147.73 38.12C147.92 38.1813 148.121 38.2018 148.32 38.18H148.28Z" fill="#868686"/>
<path d="M157.13 32.3401C157.595 32.3799 158.048 32.5018 158.47 32.7001C158.846 32.8696 159.186 33.1108 159.47 33.4101C159.738 33.7014 159.948 34.0407 160.09 34.4101C160.241 34.8092 160.316 35.2333 160.31 35.6601C160.318 36.0871 160.243 36.5115 160.09 36.9101C159.955 37.2828 159.744 37.6233 159.47 37.9101C159.185 38.2032 158.845 38.4376 158.47 38.6001C158.045 38.787 157.593 38.9019 157.13 38.9401V41.4901H156V39.0001C155.532 38.9569 155.073 38.8422 154.64 38.6601C154.265 38.4922 153.926 38.2547 153.64 37.9601C153.36 37.6766 153.145 37.3353 153.01 36.9601C152.863 36.5565 152.788 36.1298 152.79 35.7001C152.789 35.2672 152.863 34.8374 153.01 34.4301C153.147 34.056 153.362 33.7152 153.64 33.4301C153.926 33.1325 154.265 32.8916 154.64 32.7201C155.071 32.5299 155.531 32.4116 156 32.3701V29.8501H157.09L157.13 32.3401ZM156.04 33.3401C155.747 33.3343 155.456 33.3908 155.187 33.5058C154.917 33.6209 154.675 33.7918 154.477 34.0073C154.278 34.2228 154.128 34.4781 154.035 34.7561C153.943 35.0341 153.91 35.3286 153.94 35.6201C153.907 36.2075 154.096 36.7859 154.47 37.2401C154.871 37.6703 155.415 37.9403 156 38.0001L156.04 33.3401ZM157.13 38.0001C157.711 37.9537 158.254 37.6978 158.66 37.2801C159.029 36.8275 159.215 36.253 159.18 35.6701C159.215 35.0963 159.029 34.531 158.66 34.0901C158.257 33.6711 157.71 33.4208 157.13 33.3901V38.0001Z" fill="#868686"/>
<path d="M161.66 32.42H162.72V34.65H164C164.278 34.6485 164.555 34.6924 164.82 34.78C165.085 34.8573 165.33 34.9903 165.54 35.17C165.756 35.3547 165.929 35.5831 166.05 35.84C166.182 36.1376 166.25 36.4595 166.25 36.785C166.25 37.1106 166.182 37.4325 166.05 37.73C165.929 37.9808 165.755 38.2025 165.54 38.38C165.322 38.5482 165.074 38.6737 164.81 38.75C164.542 38.8377 164.262 38.8816 163.98 38.88H161.71L161.66 32.42ZM163.93 38C164.243 38.0155 164.55 37.9119 164.79 37.71C164.906 37.5964 164.996 37.4587 165.053 37.3067C165.11 37.1546 165.133 36.9919 165.12 36.83C165.131 36.6605 165.106 36.4906 165.045 36.3318C164.985 36.173 164.891 36.0292 164.77 35.91C164.545 35.707 164.253 35.5963 163.95 35.6H162.72V38H163.93ZM166.83 32.46H167.89V38.92H166.83V32.46Z" fill="#868686"/>
<path d="M32.25 0H10.45C4.67862 0 0 4.67862 0 10.45V32.25C0 38.0214 4.67862 42.7 10.45 42.7H32.25C38.0214 42.7 42.7 38.0214 42.7 32.25V10.45C42.7 4.67862 38.0214 0 32.25 0Z" fill="url(#paint0_linear)"/>
<path d="M32.4899 17.86C28.9899 14.51 25.2199 12.86 21.2899 12.86C17.3599 12.86 13.6699 14.52 10.1999 17.8L7.37988 14.8C11.5799 10.8 16.3799 8.73999 21.2899 8.73999C26.1999 8.73999 31.0999 10.88 35.2899 14.93L32.4899 17.86Z" fill="white"/>
<path d="M33.91 20.6699H8.79004V24.7799H33.91V20.6699Z" fill="white"/>
<path d="M33.91 27.8501H8.79004V31.9601H33.91V27.8501Z" fill="white"/>
</g>
<defs>
<linearGradient id="paint0_linear" x1="3.44" y1="36.98" x2="38.49" y2="6.4" gradientUnits="userSpaceOnUse">
<stop stop-color="#F9662F"/>
<stop offset="1" stop-color="#F74520"/>
</linearGradient>
<clipPath id="clip0">
<rect width="167.89" height="42.7" fill="white"/>
</clipPath>
</defs>
</svg>
