<svg width="112" height="96" viewBox="0 0 112 96" fill="none" xmlns="http://www.w3.org/2000/svg">
<g clip-path="url(#clip0)">
<path d="M9.46971 76.3899C8.1346 76.4097 6.81208 76.1295 5.59971 75.5699C3.35261 74.5443 1.59453 72.6822 0.699712 70.3799C-0.233237 68.1087 -0.233237 65.5612 0.699712 63.2899C1.64351 61.0092 3.43622 59.1842 5.69971 58.1999C6.91025 57.6716 8.21899 57.4058 9.53971 57.4199C10.8736 57.4017 12.1951 57.6783 13.4097 58.2299C14.5413 58.7513 15.5603 59.4884 16.4097 60.3999C17.2247 61.2745 17.8721 62.2914 18.3197 63.3999C18.7817 64.5436 19.0161 65.7664 19.0097 66.9999C19.011 68.2154 18.7697 69.4189 18.2997 70.5399C17.8283 71.6571 17.1497 72.6751 16.2997 73.5399C15.4405 74.4222 14.4228 75.1346 13.2997 75.6399C12.0915 76.1612 10.7854 76.417 9.46971 76.3899ZM5.22971 66.8999C5.22849 67.5192 5.31605 68.1355 5.48971 68.7299C5.65481 69.2972 5.92257 69.8293 6.27971 70.2999C6.63664 70.7626 7.09062 71.1415 7.60971 71.4099C8.21109 71.6898 8.86639 71.8349 9.52971 71.8349C10.193 71.8349 10.8483 71.6898 11.4497 71.4099C11.9741 71.1363 12.4291 70.7463 12.7797 70.2699C13.1312 69.7927 13.3891 69.2532 13.5397 68.6799C13.7074 68.0878 13.7915 67.4753 13.7897 66.8599C13.7975 66.2303 13.7099 65.6032 13.5297 64.9999C13.3674 64.4357 13.0956 63.909 12.7297 63.4499C12.3423 62.9724 11.8482 62.5924 11.2872 62.3406C10.7263 62.0887 10.114 61.9721 9.49971 61.9999C8.8381 61.9797 8.18182 62.124 7.58971 62.4199C7.06598 62.6857 6.61079 63.0691 6.25971 63.5399C5.90385 64.0136 5.63933 64.5494 5.47971 65.1199C5.31383 65.6987 5.22969 66.2978 5.22971 66.8999Z" fill="white"/>
<path d="M20.8296 66.72C20.8298 65.5664 21.0469 64.4232 21.4696 63.35C21.8966 62.2356 22.5388 61.2162 23.3596 60.35C24.2539 59.3943 25.3394 58.6377 26.5454 58.1294C27.7515 57.6212 29.0511 57.3726 30.3596 57.4C32.0003 57.357 33.6238 57.7431 35.0696 58.52C36.3457 59.1994 37.3902 60.2439 38.0696 61.52L34.1396 64.31C33.9891 63.8902 33.7543 63.5056 33.4496 63.18C33.1605 62.8864 32.822 62.6461 32.4496 62.47C32.1058 62.2908 31.739 62.1596 31.3596 62.08C31.0061 62.0214 30.648 61.9946 30.2896 62C29.6649 61.9774 29.0442 62.1078 28.4813 62.3796C27.9184 62.6515 27.4304 63.0567 27.0596 63.56C26.7137 64.0369 26.4563 64.572 26.2996 65.14C26.1341 65.712 26.0499 66.3045 26.0496 66.9C26.0528 67.5293 26.1575 68.154 26.3596 68.75C26.5379 69.3247 26.8229 69.8607 27.1996 70.33C27.5673 70.7888 28.0317 71.161 28.5596 71.42C29.1167 71.7029 29.735 71.8437 30.3596 71.83C30.7229 71.8285 31.0849 71.7883 31.4396 71.71C31.8125 71.6295 32.1725 71.4983 32.5096 71.32C32.8517 71.1331 33.1622 70.8935 33.4296 70.61C33.7134 70.2986 33.9341 69.9353 34.0796 69.54L38.2496 72C37.955 72.6982 37.5192 73.3281 36.9696 73.85C36.3742 74.4028 35.7003 74.8645 34.9696 75.22C34.2241 75.5961 33.4347 75.8783 32.6196 76.06C31.8198 76.2483 31.0013 76.3456 30.1796 76.35C28.8666 76.3633 27.5675 76.0795 26.3796 75.52C25.246 74.9888 24.227 74.2415 23.3796 73.32C22.549 72.41 21.8916 71.3561 21.4396 70.21C21.024 69.0939 20.8172 67.9109 20.8296 66.72Z" fill="white"/>
<path d="M55.2896 61.9999H49.9196V76.2299H44.7796V61.9999H39.3596V57.5199H55.2696L55.2896 61.9999Z" fill="white"/>
<path d="M58 76.7103V58.0003H66.06C66.9361 57.9919 67.8022 58.187 68.59 58.5703C69.3451 58.9313 70.024 59.4337 70.59 60.0503C71.1466 60.6585 71.5871 61.3635 71.89 62.1303C72.204 62.8776 72.3671 63.6796 72.37 64.4903C72.3688 65.3144 72.2163 66.1313 71.92 66.9003C71.6276 67.6611 71.2046 68.365 70.67 68.9803C70.1085 69.5941 69.428 70.0874 68.67 70.4303C67.881 70.7966 67.0198 70.9812 66.15 70.9703H63.1V76.7103H58ZM63.14 66.4803H65.85C66.0196 66.4739 66.1858 66.4314 66.3376 66.3555C66.4894 66.2796 66.6232 66.1721 66.73 66.0403C67.0548 65.5888 67.2008 65.0331 67.14 64.4803C67.1725 64.1972 67.1476 63.9106 67.0669 63.6374C66.9861 63.3642 66.8511 63.1101 66.67 62.8903C66.4155 62.6385 66.0774 62.4891 65.72 62.4703H63.14V66.4803Z" fill="white"/>
<path d="M83.4298 76.3899C82.0947 76.4097 80.7721 76.1295 79.5598 75.5699C78.4317 75.0557 77.4132 74.3292 76.5598 73.4299C75.7403 72.5379 75.0898 71.5045 74.6398 70.3799C74.1869 69.2583 73.956 68.0595 73.9598 66.8499C73.9555 65.6277 74.1969 64.417 74.6698 63.2899C75.133 62.1683 75.8126 61.1489 76.6698 60.2899C77.5261 59.4094 78.5448 58.703 79.6698 58.2099C80.8765 57.6807 82.1822 57.4148 83.4998 57.4299C84.8337 57.4117 86.1551 57.6883 87.3698 58.2399C89.6113 59.2851 91.363 61.155 92.2598 63.4599C92.7036 64.5769 92.931 65.768 92.9298 66.9699C92.9347 68.1858 92.6931 69.39 92.2198 70.5099C91.749 71.6275 91.0703 72.6455 90.2198 73.5099C89.3598 74.3913 88.3422 75.1036 87.2198 75.6099C86.0261 76.136 84.7341 76.4018 83.4298 76.3899ZM79.1898 66.8999C79.1868 67.5201 79.2779 68.1371 79.4598 68.7299C79.6207 69.2988 79.8888 69.8317 80.2498 70.2999C80.6043 70.7649 81.0588 71.1443 81.5798 71.4099C82.1719 71.7058 82.8282 71.8501 83.4898 71.8299C84.1556 71.8487 84.8156 71.7009 85.4098 71.3999C85.936 71.129 86.3915 70.7386 86.7398 70.2599C87.0907 69.781 87.3515 69.2422 87.5098 68.6699C87.6727 68.0769 87.7567 67.4649 87.7598 66.8499C87.7612 66.2299 87.6702 65.6131 87.4898 65.0199C87.3315 64.4541 87.0593 63.9267 86.6898 63.4699C86.3066 62.9863 85.8138 62.6007 85.2522 62.3451C84.6905 62.0895 84.0762 61.9712 83.4598 61.9999C82.7985 61.983 82.143 62.1272 81.5498 62.4199C81.026 62.6858 80.5708 63.0691 80.2198 63.5399C79.8639 64.0136 79.5994 64.5494 79.4398 65.1199C79.2787 65.6997 79.1947 66.2982 79.1898 66.8999Z" fill="white"/>
<path d="M111.84 71.44C111.858 72.1975 111.675 72.9463 111.31 73.61C110.958 74.2198 110.46 74.732 109.86 75.1C109.199 75.502 108.476 75.7894 107.72 75.95C106.866 76.1418 105.994 76.2357 105.12 76.23H95.9197V57.52H106.78C107.395 57.5118 108.003 57.6561 108.55 57.94C109.058 58.2069 109.513 58.5664 109.89 59C110.546 59.8052 110.943 60.7895 111.031 61.8243C111.118 62.8591 110.891 63.8962 110.38 64.8C109.926 65.6012 109.224 66.233 108.38 66.6C109.377 66.8741 110.264 67.4506 110.92 68.25C111.591 69.1727 111.916 70.3017 111.84 71.44ZM101.06 61.9V64.77H104.57C104.925 64.779 105.274 64.6776 105.57 64.48C105.732 64.3376 105.856 64.1569 105.932 63.9544C106.007 63.7519 106.03 63.5338 106 63.32C106.02 63.1224 105.998 62.9227 105.934 62.7346C105.87 62.5464 105.766 62.3743 105.63 62.23C105.397 62.0127 105.088 61.8944 104.77 61.9H101.06ZM106.62 70.38C106.635 69.9682 106.504 69.5642 106.25 69.24C106.141 69.0912 105.997 68.9708 105.832 68.889C105.667 68.8072 105.484 68.7664 105.3 68.77H101.06V71.91H105.12C105.515 71.9219 105.899 71.7783 106.19 71.51C106.339 71.3641 106.455 71.1874 106.529 70.9923C106.603 70.7972 106.634 70.5882 106.62 70.38Z" fill="white"/>
<path d="M4.61976 86.2399H1.61976V91.8799H0.509766V85.4199H4.61976V86.2399Z" fill="white"/>
<path d="M4.35962 90.9999C4.59497 90.9835 4.82376 90.9152 5.02962 90.7999C5.2302 90.6671 5.38409 90.4748 5.46962 90.2499C5.61463 89.8867 5.71536 89.5073 5.76962 89.1199C5.85962 88.6399 5.93962 88.0099 6.01962 87.2299L6.21962 85.4299H10.2196V91.8899H9.15962V86.2699H7.15962L6.97962 87.6699C6.85962 88.5099 6.73962 89.1999 6.60962 89.7399C6.52185 90.1769 6.37729 90.6005 6.17962 90.9999C6.02297 91.2847 5.78665 91.5175 5.49962 91.6699C5.18642 91.8181 4.84594 91.8998 4.49962 91.9099L4.35962 90.9999Z" fill="white"/>
<path d="M14.8196 91.9999C14.3622 92.0051 13.9088 91.9131 13.4896 91.7299C13.1114 91.5549 12.7716 91.3068 12.4896 90.9999C12.1991 90.69 11.9716 90.3266 11.8196 89.9299C11.6666 89.524 11.5887 89.0937 11.5896 88.6599C11.5881 88.2187 11.6695 87.7811 11.8296 87.3699C11.9818 86.9763 12.2094 86.6162 12.4996 86.3099C12.7808 86.0022 13.1209 85.754 13.4996 85.5799C13.9153 85.3967 14.3654 85.3046 14.8196 85.3099C15.277 85.3056 15.7301 85.3976 16.1496 85.5799C16.5278 85.7549 16.8677 86.003 17.1496 86.3099C17.4366 86.6188 17.6637 86.9782 17.8196 87.3699C17.9798 87.7811 18.0612 88.2187 18.0596 88.6599C18.0621 89.0947 17.9806 89.526 17.8196 89.9299C17.6801 90.3236 17.4662 90.6869 17.1896 90.9999C16.9044 91.3031 16.5653 91.5506 16.1896 91.7299C15.7585 91.92 15.2906 92.0122 14.8196 91.9999ZM12.6796 88.6699C12.6782 88.991 12.7358 89.3096 12.8496 89.6099C12.953 89.8903 13.1092 90.1483 13.3096 90.3699C13.5001 90.5809 13.7314 90.751 13.9896 90.8699C14.2502 90.995 14.5356 91.0599 14.8246 91.0599C15.1137 91.0599 15.399 90.995 15.6596 90.8699C15.9202 90.7506 16.1521 90.5767 16.3396 90.3599C16.5454 90.1366 16.7051 89.875 16.8096 89.5899C16.9234 89.2896 16.981 88.971 16.9796 88.6499C16.9793 88.329 16.9217 88.0106 16.8096 87.7099C16.7031 87.4483 16.5507 87.2079 16.3596 86.9999C16.1699 86.7829 15.9387 86.6061 15.6796 86.4799C15.416 86.3598 15.1294 86.2984 14.8396 86.2999C14.5519 86.2975 14.2676 86.3626 14.0096 86.4899C13.7622 86.6165 13.5415 86.7897 13.3596 86.9999C13.157 87.2237 13.0007 87.4854 12.8996 87.7699C12.7734 88.0545 12.6989 88.3592 12.6796 88.6699Z" fill="white"/>
<path d="M20.4997 88.0999H23.7697V85.4199H24.8297V91.8799H23.7697V88.9999H20.4997V91.8699H19.4397V85.4199H20.4997V88.0999Z" fill="white"/>
<path d="M28.2697 91.9999C27.9795 92.003 27.6912 91.9522 27.4196 91.8499C27.1647 91.7511 26.9307 91.6052 26.7297 91.4199C26.5341 91.2403 26.3776 91.0225 26.2697 90.7799C26.1559 90.5286 26.0979 90.2557 26.0996 89.9799C26.0992 89.6976 26.1679 89.4195 26.2997 89.1699C26.436 88.9228 26.6277 88.7106 26.8597 88.5499C27.1272 88.3699 27.4205 88.2317 27.7297 88.1399C28.087 88.0363 28.4576 87.9858 28.8297 87.9899C29.1651 87.9874 29.5 88.0175 29.8297 88.0799C30.1198 88.1289 30.4044 88.2059 30.6797 88.3099V87.7899C30.7018 87.5607 30.6726 87.3295 30.5942 87.113C30.5158 86.8966 30.3901 86.7003 30.2264 86.5384C30.0626 86.3766 29.8649 86.2532 29.6475 86.1774C29.4301 86.1015 29.1985 86.0751 28.9697 86.0999C28.2429 86.1437 27.546 86.405 26.9697 86.8499L26.6097 86.1499C27.3429 85.6241 28.2176 85.3313 29.1197 85.3099C29.4814 85.2858 29.8443 85.3335 30.1875 85.4502C30.5308 85.5669 30.8476 85.7503 31.1197 85.9899C31.3647 86.2432 31.5544 86.5447 31.6766 86.8752C31.7989 87.2058 31.851 87.5581 31.8297 87.9099V90.5399C31.8297 90.7999 31.9497 90.9299 32.1797 90.9399V91.8799H31.8896H31.6597C31.5639 91.8839 31.4683 91.8683 31.3789 91.8339C31.2895 91.7995 31.208 91.7471 31.1396 91.6799C31.0168 91.5544 30.9363 91.3935 30.9097 91.2199V90.7599C30.6261 91.1427 30.2514 91.4486 29.8196 91.6499C29.3373 91.8856 28.8065 92.0054 28.2697 91.9999ZM28.5497 91.1799C28.9213 91.1924 29.2917 91.1312 29.6396 90.9999C29.9383 90.8745 30.1999 90.6749 30.3997 90.4199C30.5365 90.2964 30.6192 90.1239 30.6296 89.9399V88.9999C30.1079 88.7924 29.5511 88.6872 28.9896 88.6899C28.5253 88.6575 28.0618 88.7655 27.6597 88.9999C27.4973 89.0886 27.3627 89.2207 27.2709 89.3813C27.1791 89.542 27.1336 89.725 27.1396 89.9099C27.1393 90.0826 27.1768 90.2533 27.2496 90.4099C27.3169 90.5677 27.4196 90.708 27.5497 90.8199C27.6764 90.944 27.8305 91.0365 27.9996 91.0899C28.1754 91.1552 28.3622 91.1858 28.5497 91.1799Z" fill="white"/>
<path d="M33.0397 88.6399C33.0362 88.1985 33.1176 87.7606 33.2797 87.3499C33.4294 86.9552 33.6573 86.5946 33.9497 86.29C34.2347 85.9891 34.574 85.7448 34.9497 85.5699C35.3959 85.3843 35.8765 85.2957 36.3597 85.31C36.9443 85.2942 37.522 85.4395 38.0297 85.7299C38.48 86.008 38.8436 86.4063 39.0797 86.88L38.0197 87.2099C37.8572 86.9159 37.619 86.6707 37.3297 86.5C37.0504 86.3487 36.7402 86.2637 36.4228 86.2516C36.1055 86.2394 35.7896 86.3005 35.4997 86.43C35.238 86.5429 35.0055 86.7139 34.8197 86.93C34.6242 87.1515 34.4686 87.4053 34.3597 87.68C34.2435 88.0001 34.1892 88.3395 34.1997 88.68C34.1885 89.0213 34.2463 89.3614 34.3697 89.68C34.4808 89.9596 34.6361 90.2196 34.8297 90.45C35.0192 90.6645 35.2506 90.8381 35.5097 90.9599C35.7708 91.0885 36.0586 91.1536 36.3497 91.15C36.5391 91.1487 36.7275 91.1218 36.9097 91.07C37.0891 91.0207 37.2607 90.9466 37.4197 90.8499C37.5671 90.7662 37.7018 90.6618 37.8197 90.54C37.9324 90.4313 38.018 90.2977 38.0697 90.15L39.1297 90.47C39.0318 90.7118 38.8931 90.935 38.7197 91.13C38.5345 91.3258 38.3224 91.4941 38.0897 91.63C37.8402 91.7731 37.5751 91.8872 37.2997 91.97C36.9891 92.0217 36.6729 92.0318 36.3597 92C35.917 92.0057 35.478 91.9198 35.0701 91.7477C34.6622 91.5756 34.2944 91.321 33.9897 91C33.6991 90.69 33.4716 90.3266 33.3197 89.93C33.1412 89.5229 33.046 89.0843 33.0397 88.6399Z" fill="white"/>
<path d="M39.8398 88.64C39.8331 88.1992 39.9111 87.7613 40.0697 87.35C40.2195 86.9552 40.4474 86.5947 40.7397 86.29C41.0248 85.9892 41.364 85.7449 41.7397 85.57C42.1643 85.3939 42.6201 85.3055 43.0798 85.31C43.6644 85.2943 44.2421 85.4395 44.7497 85.73C45.2031 86.0074 45.5701 86.4056 45.8097 86.88L44.7397 87.21C44.5829 86.9118 44.3433 86.6653 44.0498 86.5C43.7705 86.3487 43.4602 86.2637 43.1429 86.2516C42.8256 86.2395 42.5097 86.3005 42.2197 86.43C41.9581 86.543 41.7256 86.7139 41.5397 86.93C41.3439 87.1495 41.1913 87.4039 41.0898 87.68C40.9651 87.9981 40.9072 88.3385 40.9197 88.68C40.9139 89.021 40.9716 89.3601 41.0898 89.68C41.2005 89.962 41.3596 90.2226 41.5597 90.45C41.7473 90.6668 41.9792 90.8407 42.2397 90.96C42.4974 91.0884 42.7819 91.1536 43.0697 91.15C43.2727 91.1289 43.4714 91.0784 43.6598 91C43.8392 90.9507 44.0108 90.8767 44.1697 90.78C44.3172 90.6962 44.4519 90.5918 44.5697 90.47C44.6825 90.3614 44.7681 90.2278 44.8197 90.08L45.8797 90.4C45.7857 90.6438 45.6467 90.8677 45.4697 91.06C45.2862 91.2535 45.0777 91.4216 44.8497 91.56C44.5968 91.7032 44.3284 91.8172 44.0498 91.9C43.7497 91.9804 43.4404 92.0208 43.1297 92.02C42.669 92.0263 42.2121 91.9343 41.7897 91.75C41.4141 91.5707 41.075 91.3232 40.7897 91.02C40.4992 90.7101 40.2717 90.3467 40.1198 89.95C39.9434 89.5353 39.8484 89.0906 39.8398 88.64Z" fill="white"/>
<path d="M49.6098 88.76C49.612 88.9179 49.5814 89.0746 49.5198 89.22C49.4565 89.3527 49.3721 89.4743 49.2698 89.58C49.1658 89.6889 49.0397 89.7742 48.8998 89.83C48.757 89.8887 48.6042 89.9192 48.4498 89.92C48.2952 89.9211 48.1421 89.8905 47.9998 89.83C47.8613 89.7716 47.7356 89.6867 47.6298 89.58C47.5209 89.48 47.4355 89.357 47.3798 89.22C47.3104 89.0768 47.2761 88.9191 47.2798 88.76C47.2792 88.6076 47.3134 88.4571 47.3798 88.32C47.4357 88.1802 47.5209 88.054 47.6298 87.95C47.7352 87.8403 47.8609 87.752 47.9998 87.69C48.1421 87.6295 48.2952 87.5989 48.4498 87.6C48.6042 87.6008 48.757 87.6313 48.8998 87.69C49.0401 87.7496 49.1662 87.8382 49.2698 87.95C49.3723 88.0593 49.4567 88.1842 49.5198 88.32C49.5792 88.4591 49.6098 88.6088 49.6098 88.76Z" fill="white"/>
<path d="M54.1397 91.8799H53.0697V86.3599H50.9097V85.4199H56.2997V86.3599H54.1397V91.8799Z" fill="white"/>
<path d="M59.0997 91.9999C58.8064 92.0022 58.515 91.9514 58.2397 91.8499C57.9891 91.7486 57.7587 91.6029 57.5597 91.4199C57.3642 91.2403 57.2077 91.0225 57.0997 90.7799C56.986 90.5286 56.928 90.2557 56.9297 89.9799C56.9293 89.6976 56.998 89.4195 57.1297 89.1699C57.2661 88.9228 57.4578 88.7106 57.6897 88.5499C57.9558 88.3673 58.2496 88.2289 58.5597 88.1399C58.9138 88.037 59.281 87.9865 59.6497 87.9899C59.9852 87.9881 60.32 88.0182 60.6497 88.0799C60.9398 88.1289 61.2245 88.2059 61.4997 88.3099V87.7899C61.52 87.5611 61.4895 87.3307 61.4105 87.1151C61.3314 86.8995 61.2058 86.704 61.0424 86.5425C60.8791 86.3811 60.6821 86.2577 60.4655 86.1812C60.249 86.1047 60.0182 86.0769 59.7897 86.0999C59.0629 86.1437 58.3661 86.405 57.7897 86.8499L57.4297 86.1499C58.1621 85.6224 59.0373 85.3295 59.9397 85.3099C60.3015 85.2858 60.6644 85.3335 61.0076 85.4502C61.3509 85.5669 61.6676 85.7503 61.9397 85.9899C62.1848 86.2432 62.3745 86.5447 62.4967 86.8752C62.6189 87.2058 62.6711 87.5581 62.6497 87.9099V90.5399C62.6497 90.7999 62.7597 90.9299 62.9897 90.9399V91.8799H62.7097H62.4797C62.384 91.8839 62.2884 91.8683 62.199 91.8339C62.1095 91.7995 62.0281 91.7471 61.9597 91.6799C61.8333 91.557 61.7522 91.3948 61.7297 91.2199V90.7599C61.4425 91.1431 61.0645 91.449 60.6297 91.6499C60.1544 91.8854 59.6302 92.0053 59.0997 91.9999ZM59.3797 91.1799C59.7482 91.1932 60.1155 91.132 60.4597 90.9999C60.7615 90.8799 61.0244 90.6793 61.2197 90.4199C61.2907 90.3608 61.3486 90.2876 61.3899 90.205C61.4312 90.1224 61.455 90.0321 61.4597 89.9399V88.9999C60.9344 88.7926 60.3744 88.6874 59.8097 88.6899C59.3426 88.6695 58.8798 88.7878 58.4797 89.0299C58.3235 89.1247 58.1944 89.2584 58.105 89.4178C58.0157 89.5773 57.9691 89.7571 57.9697 89.9399C57.9694 90.1126 58.0069 90.2833 58.0797 90.4399C58.1469 90.5952 58.2457 90.7348 58.3697 90.8499C58.4996 90.9698 58.6528 91.0617 58.8197 91.1199C58.9946 91.1726 59.1776 91.1929 59.3597 91.1799H59.3797Z" fill="white"/>
<path d="M64.7298 85.4199L66.4898 87.7899L66.5898 87.9899L66.6998 87.7899L68.4598 85.4199H69.6098L67.1998 88.6599L69.6198 91.8799H68.4698L66.6998 89.5099L66.5898 89.3299L66.4898 89.5099L64.7298 91.8799H63.5698L65.9998 88.6599L63.5898 85.4199H64.7298Z" fill="white"/>
<path d="M73.1697 92C72.7123 92.0052 72.259 91.9131 71.8398 91.73C71.4615 91.5549 71.1217 91.3068 70.8398 91C70.549 90.6921 70.3244 90.328 70.1797 89.93C70.0188 89.526 69.9373 89.0948 69.9398 88.66C69.9382 88.2187 70.0196 87.7811 70.1797 87.37C70.3356 86.9782 70.5628 86.6188 70.8497 86.31C71.1299 86.001 71.4702 85.7526 71.8497 85.58C72.2622 85.3978 72.7089 85.3058 73.1598 85.31C73.6171 85.3057 74.0703 85.3977 74.4898 85.58C74.8693 85.7526 75.2096 86.001 75.4898 86.31C75.78 86.6163 76.0076 86.9764 76.1598 87.37C76.3199 87.7811 76.4013 88.2187 76.3997 88.66C76.4006 89.0937 76.3227 89.5241 76.1697 89.93C76.0178 90.3266 75.7903 90.69 75.4997 91C75.2145 91.3031 74.8754 91.5507 74.4997 91.73C74.0809 91.9143 73.6273 92.0064 73.1697 92ZM71.0297 88.67C71.0283 88.9911 71.086 89.3097 71.1997 89.61C71.3071 89.8884 71.4628 90.1457 71.6598 90.37C71.8502 90.5809 72.0816 90.751 72.3398 90.87C72.6003 90.995 72.8857 91.0599 73.1748 91.0599C73.4638 91.0599 73.7491 90.995 74.0097 90.87C74.2718 90.7483 74.5065 90.5748 74.6997 90.36C74.899 90.1336 75.0549 89.8726 75.1598 89.59C75.2735 89.2897 75.3312 88.9711 75.3297 88.65C75.3294 88.329 75.2718 88.0107 75.1598 87.71C75.0524 87.4315 74.8967 87.1742 74.6997 86.95C74.5043 86.7349 74.2703 86.5586 74.0097 86.43C73.7461 86.3098 73.4595 86.2484 73.1697 86.25C72.882 86.2475 72.5978 86.3126 72.3398 86.44C72.0807 86.5662 71.8495 86.743 71.6598 86.96C71.4605 87.1863 71.3046 87.4473 71.1997 87.73C71.086 88.0302 71.0283 88.3489 71.0297 88.67Z" fill="white"/>
<path d="M81.8996 86.2399H78.8996V91.8799H77.8396V85.4199H81.9496L81.8996 86.2399Z" fill="white"/>
<path d="M86.5098 92C86.007 92.0119 85.5123 91.8725 85.0898 91.6C84.6815 91.3511 84.3386 91.0082 84.0898 90.6V94.51H82.9998V85.42H83.9998V86.63C84.2524 86.2247 84.5945 85.8826 84.9998 85.63C85.412 85.3887 85.8821 85.2642 86.3598 85.27C86.7817 85.2655 87.1991 85.3579 87.5798 85.54C87.9611 85.7141 88.3018 85.9661 88.5798 86.28C88.8561 86.5949 89.073 86.9575 89.2198 87.35C89.3686 87.7532 89.4431 88.1801 89.4398 88.61C89.4421 89.0519 89.3711 89.4912 89.2298 89.91C89.1043 90.3015 88.904 90.6649 88.6398 90.98C88.3903 91.2786 88.0801 91.5206 87.7298 91.69C87.3548 91.892 86.9357 91.9985 86.5098 92ZM86.1798 91.06C86.4814 91.0626 86.7795 90.9941 87.0498 90.86C87.3071 90.7224 87.5347 90.5355 87.7198 90.31C87.9022 90.0788 88.0442 89.8185 88.1398 89.54C88.2388 89.2537 88.2895 88.9529 88.2897 88.65C88.2894 88.3355 88.2318 88.0238 88.1198 87.73C88.0113 87.4468 87.852 87.1859 87.6497 86.96C87.4527 86.7424 87.2149 86.5658 86.9498 86.44C86.6777 86.3121 86.3804 86.2471 86.0798 86.25C85.8676 86.2529 85.6577 86.2935 85.4598 86.37C85.2517 86.4457 85.0535 86.5464 84.8698 86.67C84.6863 86.7968 84.5243 86.9521 84.3898 87.13C84.2563 87.2962 84.1638 87.4914 84.1198 87.7V89.54C84.2128 89.7528 84.3303 89.9542 84.4698 90.14C84.6092 90.3193 84.7704 90.4806 84.9498 90.62C85.1271 90.7534 85.3223 90.8611 85.5298 90.94C85.737 91.0202 85.9575 91.0609 86.1798 91.06Z" fill="white"/>
<path d="M92.3597 91.9999C92.0664 92.0022 91.775 91.9514 91.4997 91.8499C91.2491 91.7486 91.0187 91.6029 90.8197 91.4199C90.6242 91.2403 90.4677 91.0225 90.3597 90.7799C90.246 90.5286 90.188 90.2557 90.1897 89.9799C90.1893 89.6976 90.258 89.4195 90.3897 89.1699C90.5261 88.9228 90.7178 88.7106 90.9497 88.5499C91.2173 88.3699 91.5106 88.2317 91.8197 88.1399C92.1771 88.0363 92.5477 87.9858 92.9197 87.9899C93.2552 87.9874 93.5901 88.0175 93.9197 88.0799C94.2098 88.1289 94.4945 88.2059 94.7697 88.3099V87.7899C94.7919 87.5607 94.7627 87.3295 94.6843 87.113C94.6059 86.8966 94.4802 86.7003 94.3165 86.5384C94.1527 86.3766 93.955 86.2532 93.7376 86.1774C93.5202 86.1015 93.2886 86.0751 93.0597 86.0999C92.3156 86.1337 91.5999 86.3955 91.0097 86.8499L90.6497 86.1499C91.3821 85.6224 92.2573 85.3295 93.1597 85.3099C93.5215 85.2858 93.8844 85.3335 94.2276 85.4502C94.5709 85.5669 94.8876 85.7503 95.1597 85.9899C95.4048 86.2432 95.5945 86.5447 95.7167 86.8752C95.8389 87.2058 95.8911 87.5581 95.8697 87.9099V90.5399C95.8697 90.7999 95.9897 90.9299 96.2197 90.9399V91.8799H95.9297H95.6997C95.604 91.8839 95.5084 91.8683 95.419 91.8339C95.3295 91.7995 95.2481 91.7471 95.1797 91.6799C95.0569 91.5544 94.9764 91.3935 94.9497 91.2199V90.7599C94.6647 91.1452 94.2861 91.4515 93.8497 91.6499C93.3865 91.8793 92.8767 91.9991 92.3597 91.9999ZM92.6397 91.1799C93.0134 91.1828 93.3839 91.1114 93.7297 90.9699C94.0284 90.8445 94.29 90.6449 94.4897 90.3899C94.6266 90.2664 94.7093 90.0939 94.7197 89.9099V88.9999C94.198 88.7924 93.6412 88.6872 93.0797 88.6899C92.6123 88.6665 92.1486 88.785 91.7497 89.0299C91.5874 89.1186 91.4528 89.2507 91.361 89.4113C91.2692 89.572 91.2237 89.755 91.2297 89.9399C91.2294 90.1126 91.2669 90.2833 91.3397 90.4399C91.4069 90.5952 91.5057 90.7348 91.6297 90.8499C91.7617 90.9722 91.9186 91.0643 92.0897 91.1199C92.28 91.1812 92.481 91.2017 92.6797 91.1799H92.6397Z" fill="white"/>
<path d="M101.49 85.34C101.954 85.3798 102.408 85.5017 102.83 85.7C103.206 85.8695 103.546 86.1107 103.83 86.41C104.098 86.7013 104.308 87.0406 104.45 87.41C104.601 87.8091 104.676 88.2332 104.67 88.66C104.678 89.0869 104.603 89.5114 104.45 89.91C104.315 90.2827 104.103 90.6232 103.83 90.91C103.545 91.2031 103.205 91.4375 102.83 91.6C102.405 91.7869 101.952 91.9018 101.49 91.94V94.49H100.36V92C99.8917 91.9568 99.433 91.8421 98.9997 91.66C98.625 91.4921 98.2857 91.2546 97.9997 90.96C97.7195 90.6764 97.5045 90.3352 97.3697 89.96C97.2222 89.5564 97.1477 89.1297 97.1497 88.7C97.1486 88.2671 97.223 87.8373 97.3697 87.43C97.5067 87.0559 97.7214 86.7151 97.9997 86.43C98.2853 86.1324 98.6246 85.8915 98.9997 85.72C99.4309 85.5297 99.8903 85.4115 100.36 85.37V82.85H101.45L101.49 85.34ZM100.4 86.34C100.107 86.3342 99.8159 86.3907 99.5464 86.5057C99.2769 86.6207 99.0349 86.7917 98.8364 87.0072C98.6379 87.2227 98.4874 87.4779 98.3949 87.756C98.3024 88.034 98.2699 88.3285 98.2997 88.62C98.2664 89.2074 98.4557 89.7858 98.8297 90.24C99.2309 90.6701 99.7745 90.9402 100.36 91L100.4 86.34ZM101.49 91C102.07 90.9535 102.614 90.6976 103.02 90.28C103.389 89.8274 103.574 89.2528 103.54 88.67C103.575 88.0962 103.389 87.5309 103.02 87.09C102.617 86.671 102.07 86.4207 101.49 86.39V91Z" fill="white"/>
<path d="M106.02 85.4199H107.08V87.6499H108.36C108.638 87.6484 108.915 87.6923 109.18 87.7799C109.445 87.8572 109.69 87.9902 109.9 88.1699C110.115 88.3545 110.289 88.5829 110.41 88.8399C110.542 89.1375 110.61 89.4594 110.61 89.7849C110.61 90.1105 110.542 90.4324 110.41 90.7299C110.288 90.9807 110.114 91.2024 109.9 91.3799C109.682 91.548 109.434 91.6736 109.17 91.7499C108.902 91.8376 108.622 91.8815 108.34 91.8799H106.07L106.02 85.4199ZM108.29 90.9999C108.603 91.0154 108.91 90.9118 109.15 90.7099C109.266 90.5963 109.355 90.4586 109.413 90.3066C109.47 90.1545 109.492 89.9918 109.48 89.8299C109.491 89.6604 109.466 89.4905 109.405 89.3317C109.345 89.1729 109.251 89.029 109.13 88.9099C108.905 88.7069 108.612 88.5961 108.31 88.5999H107.08V90.9999H108.29ZM111.19 85.4599H112.25V91.9199H111.19V85.4599Z" fill="white"/>
<path d="M66.25 0H44.45C38.6786 0 34 4.67862 34 10.45V32.25C34 38.0214 38.6786 42.7 44.45 42.7H66.25C72.0214 42.7 76.7 38.0214 76.7 32.25V10.45C76.7 4.67862 72.0214 0 66.25 0Z" fill="url(#paint0_linear)"/>
<path d="M66.4899 17.86C62.9899 14.51 59.2199 12.86 55.2899 12.86C51.3599 12.86 47.6699 14.52 44.1999 17.8L41.3799 14.8C45.5799 10.8 50.3799 8.73999 55.2899 8.73999C60.1999 8.73999 65.0999 10.88 69.2899 14.93L66.4899 17.86Z" fill="#F74520"/>
<path d="M67.91 20.6699H42.79V24.7799H67.91V20.6699Z" fill="#F74520"/>
<path d="M67.91 27.8501H42.79V31.9601H67.91V27.8501Z" fill="#F74520"/>
</g>
<defs>
<linearGradient id="paint0_linear" x1="37.44" y1="36.98" x2="72.49" y2="6.4" gradientUnits="userSpaceOnUse">
<stop stop-color="white"/>
<stop offset="1" stop-color="white"/>
</linearGradient>
<clipPath id="clip0">
<rect width="112" height="96" fill="white"/>
</clipPath>
</defs>
</svg>
